<svg class="w-64 h-64" viewBox="0 0 64 64" xmlns="http://www.w3.org/2000/svg">
            <rect width="64" height="64" rx="12" fill="#0553b1"/>
            <g transform="translate(16.85 8) scale(0.0468)">
                <path fill-rule="evenodd" clip-rule="evenodd" d="M0 388.185C0 258.947 95.0054 149.522 226.06 112.547L105.141 63.6928L130.864 0.0256042L358.247 91.8941L266.379 319.277L202.711 293.554L249.374 178.059C145.169 205.517 69.3644 289.206 69.3644 388.185C69.3644 509.441 183.131 607.75 323.509 607.839L323.701 607.839L323.892 607.839C339.618 607.829 355.009 606.586 369.944 604.217V607.839H369.944V763.909L441.786 692.595C470.175 662.509 494.205 632.137 513.875 601.481C556.65 534.814 578.037 475.276 578.037 422.868L578.037 411.307L578.037 402.795V402.677L578.037 388.185C578.037 283.851 493.809 196.507 380.874 174.103L398.705 106.965C541.314 137.173 647.401 251.618 647.401 388.185V422.868C647.401 493.003 620.812 567.762 567.632 647.146C546.173 679.18 520.132 711.213 489.511 743.247L489.555 743.419L484.374 748.577C477.237 755.921 469.86 763.265 462.242 770.609L300.58 931.539V676.478C132.596 665.893 0 540.865 0 388.185ZM389.019 488.186C370.907 506.298 348.749 515.353 322.545 515.353C297.111 515.353 275.531 506.298 257.804 488.186C240.078 470.074 231.215 448.301 231.215 422.868C231.215 397.434 240.078 375.661 257.804 357.549C275.531 339.438 297.111 330.382 322.545 330.382C348.749 330.382 370.907 339.438 389.019 357.549C407.131 375.661 416.187 397.434 416.187 422.868C416.187 448.301 407.131 470.074 389.019 488.186ZM0 954.661V1024.03H647.401V954.661H0Z" fill="white"/>
            </g>
        </svg>